<svg xmlns="http://www.w3.org/2000/svg" viewBox="0 0 48 56" width="48" height="56">
  <!-- Sharp leaf: very pointed tips, wide belly at mid -->
  <path d="M24 2
    C24.5 2, 44 12, 44 24
    C44 36, 24.5 46, 24 46
    C23.5 46, 4 36, 4 24
    C4 12, 23.5 2, 24 2 Z"
    fill="rgba(255,255,255,0.18)"
    stroke="rgba(255,255,255,0.65)"
    stroke-width="1.3"/>

  <!-- Stem -->
  <line x1="24" y1="46" x2="24" y2="55"
    stroke="rgba(255,255,255,0.7)" stroke-width="2" stroke-linecap="round"/>

  <!-- Centre midrib -->
  <line x1="24" y1="4" x2="24" y2="45"
    stroke="rgba(255,255,255,0.2)" stroke-width="0.9"/>

  <!-- ECG heartbeat pulse -->
  <polyline
    points="7,24  13,24  15,17  17,31  19,20  21,28  24,24  27,24  29,17  31,31  33,24  41,24"
    fill="none"
    stroke="#ffffff"
    stroke-width="2.2"
    stroke-linecap="round"
    stroke-linejoin="round"/>
</svg>
